<svg xmlns="http://www.w3.org/2000/svg" width="1280" height="720" viewBox="0 0 1280 720" role="img" aria-labelledby="title desc">
  <title id="title">Desktop screenshot placeholder</title>
  <desc id="desc">Placeholder image for the IITG Student Performance Analytics Dashboard desktop screenshot.</desc>
  <rect width="1280" height="720" fill="#0f1117"/>
  <rect x="52" y="48" width="250" height="624" rx="8" fill="#171b23" stroke="#343d4f"/>
  <rect x="334" y="48" width="894" height="84" rx="8" fill="#171b23" stroke="#343d4f"/>
  <rect x="334" y="164" width="204" height="122" rx="8" fill="#171b23" stroke="#343d4f"/>
  <rect x="560" y="164" width="204" height="122" rx="8" fill="#171b23" stroke="#343d4f"/>
  <rect x="786" y="164" width="204" height="122" rx="8" fill="#171b23" stroke="#343d4f"/>
  <rect x="1012" y="164" width="216" height="122" rx="8" fill="#171b23" stroke="#343d4f"/>
  <rect x="334" y="318" width="430" height="286" rx="8" fill="#171b23" stroke="#343d4f"/>
  <rect x="786" y="318" width="442" height="286" rx="8" fill="#171b23" stroke="#343d4f"/>
  <path d="M380 548c64-72 106-48 156-116 42-58 100-36 168-92" fill="none" stroke="#2dd4bf" stroke-width="10" stroke-linecap="round"/>
  <path d="M850 526h48v-70h34v70h48v-122h34v122h48v-176h34v176h48v-96h34v96" fill="none" stroke="#f59e0b" stroke-width="12" stroke-linejoin="round"/>
  <text x="92" y="128" fill="#eef2f7" font-family="Arial, sans-serif" font-size="30" font-weight="700">IITG Analytics</text>
  <text x="374" y="102" fill="#eef2f7" font-family="Arial, sans-serif" font-size="34" font-weight="700">Desktop Dashboard Screenshot</text>
  <text x="374" y="240" fill="#2dd4bf" font-family="Arial, sans-serif" font-size="54" font-weight="800">8.24</text>
  <text x="604" y="240" fill="#f59e0b" font-family="Arial, sans-serif" font-size="54" font-weight="800">146</text>
  <text x="830" y="240" fill="#fb7185" font-family="Arial, sans-serif" font-size="54" font-weight="800">8.51</text>
</svg>
