<svg xmlns="http://www.w3.org/2000/svg" width="390" height="844" viewBox="0 0 390 844" role="img" aria-labelledby="title desc">
  <title id="title">Mobile screenshot placeholder</title>
  <desc id="desc">Placeholder image for the Student Performance Analytics Dashboard mobile screenshot.</desc>
  <rect width="390" height="844" fill="#0f1117"/>
  <rect x="18" y="22" width="354" height="74" rx="8" fill="#171b23" stroke="#343d4f"/>
  <rect x="18" y="118" width="354" height="118" rx="8" fill="#171b23" stroke="#343d4f"/>
  <rect x="18" y="252" width="354" height="118" rx="8" fill="#171b23" stroke="#343d4f"/>
  <rect x="18" y="386" width="354" height="214" rx="8" fill="#171b23" stroke="#343d4f"/>
  <rect x="18" y="616" width="354" height="184" rx="8" fill="#171b23" stroke="#343d4f"/>
  <path d="M52 556c38-72 64-38 98-102 31-58 74-26 132-78" fill="none" stroke="#2dd4bf" stroke-width="8" stroke-linecap="round"/>
  <path d="M60 754h34v-58h28v58h34v-92h28v92h34v-120h28v120h34v-72h28v72" fill="none" stroke="#f59e0b" stroke-width="8" stroke-linejoin="round"/>
  <text x="42" y="68" fill="#eef2f7" font-family="Arial, sans-serif" font-size="24" font-weight="700">Student Analytics</text>
  <text x="42" y="184" fill="#2dd4bf" font-family="Arial, sans-serif" font-size="52" font-weight="800">8.24</text>
  <text x="42" y="318" fill="#f59e0b" font-family="Arial, sans-serif" font-size="52" font-weight="800">Mobile</text>
</svg>
